<?xml version="1.0" standalone="no"?>
<!DOCTYPE svg PUBLIC "-//W3C//DTD SVG 20010904//EN"
 "http://www.w3.org/TR/2001/REC-SVG-20010904/DTD/svg10.dtd">
<svg version="1.0" xmlns="http://www.w3.org/2000/svg"
 width="225.000000pt" height="225.000000pt" viewBox="0 0 225.000000 225.000000"
 preserveAspectRatio="xMidYMid meet">

<g transform="translate(0.000000,225.000000) scale(0.100000,-0.100000)"
fill="#000000" stroke="none">
<path d="M0 1125 l0 -1125 1125 0 1125 0 0 1125 0 1125 -1125 0 -1125 0 0
-1125z m1280 745 c0 -5 52 -11 122 -12 l123 -3 -34 -21 -34 -22 31 -16 c18 -9
32 -21 32 -26 0 -6 -50 -10 -122 -10 l-123 0 0 -495 0 -495 95 0 c92 1 255 13
333 26 l38 6 -7 -44 c-10 -67 -32 -127 -72 -196 l-36 -62 -457 0 -457 0 -43
33 c-80 61 -136 157 -152 261 l-6 38 32 -6 c169 -34 390 -56 572 -56 63 0 116
4 120 10 3 5 -8 35 -24 67 -64 128 -76 190 -75 388 1 198 9 242 77 423 41 110
39 112 -79 53 -134 -68 -243 -175 -336 -331 -86 -144 -187 -422 -160 -438 6
-4 142 -41 303 -82 161 -41 285 -76 276 -78 -8 -2 -146 31 -307 72 -160 42
-294 76 -296 76 -9 0 6 57 43 170 114 344 323 591 561 661 l42 12 0 54 c0 29
5 53 10 53 6 0 10 -4 10 -10z m-490 -1490 c15 0 39 9 52 20 25 19 26 19 43 0
24 -27 79 -26 106 1 l21 21 22 -21 c29 -27 74 -27 103 1 l23 21 23 -21 c29
-28 74 -28 103 -1 l22 21 21 -21 c27 -27 82 -28 106 -1 17 19 18 19 43 0 32
-26 73 -25 107 2 18 14 26 17 23 7 -2 -8 -21 -22 -41 -32 -36 -18 -38 -18 -75
0 -37 18 -39 18 -70 0 -27 -16 -37 -17 -66 -7 -19 6 -37 16 -39 23 -3 8 -11 6
-26 -7 -28 -25 -84 -26 -111 -1 -19 18 -21 18 -40 0 -27 -24 -83 -24 -110 0
-18 16 -22 17 -37 2 -29 -26 -65 -29 -97 -9 -29 17 -31 17 -68 -1 -37 -18 -39
-18 -75 0 -20 10 -39 24 -41 32 -3 10 5 7 23 -7 15 -12 40 -22 55 -22z"/>
<path d="M1278 1815 l-4 -35 105 0 c101 0 104 1 82 16 l-24 17 24 18 c24 18
23 19 -77 19 l-102 0 -4 -35z"/>
<path d="M1221 1646 c-107 -298 -107 -579 3 -792 l35 -69 1 473 c0 259 -2 472
-4 472 -2 0 -18 -38 -35 -84z"/>
<path d="M533 773 c11 -64 64 -159 117 -206 l49 -44 152 -6 c194 -9 647 -9
717 0 48 5 56 10 79 44 31 48 73 160 73 198 0 28 -1 28 -42 20 -24 -4 -129
-13 -235 -20 -229 -14 -566 0 -767 31 -71 11 -133 20 -139 20 -6 0 -7 -15 -4
-37z"/>
</g>
</svg>
